<svg width="46" height="46" fill="none" stroke="currentColor" stroke-linecap="round" stroke-linejoin="round" stroke-width="1.5" viewBox="0 0 24 24" xmlns="http://www.w3.org/2000/svg">
  <path d="M5.143 7.429H16.57a2.286 2.286 0 0 1 2.286 2.285v3.429a2.286 2.286 0 0 1-2.285 2.286H5.142a2.286 2.286 0 0 1-2.285-2.286V9.714A2.286 2.286 0 0 1 5.143 7.43Z" clip-rule="evenodd"></path>
  <path fill="currentColor" fill-rule="evenodd" stroke="none" d="M5.714 9.143h4.572c.63 0 1.143.511 1.143 1.143v2.285c0 .632-.512 1.143-1.143 1.143H5.714a1.143 1.143 0 0 1-1.143-1.143v-2.285c0-.631.512-1.143 1.143-1.143Z" clip-rule="evenodd"></path>
  <path d="M21.143 9.714v3.429"></path>
</svg>