<svg width="46" height="46" fill="none" stroke="currentColor" stroke-linecap="round" stroke-linejoin="round" stroke-width="1.5" viewBox="0 0 24 24" xmlns="http://www.w3.org/2000/svg">
  <path d="M7.844 3.99a4.554 4.554 0 0 1 3.013-1.133h2.286a4.571 4.571 0 0 1 4.571 4.571v1.24c0 2.18.593 4.32 1.715 6.19.272.453.331.975.207 1.45"></path>
  <path d="M17.714 17.714H6.19a1.887 1.887 0 0 1-1.618-2.857 12.03 12.03 0 0 0 1.715-6.189v-1.24c0-.313-.06-.847 0-1.142"></path>
  <path d="M20 20 4 4"></path>
  <path d="M14.857 19.428c-.762 1.143-1.714 1.715-2.857 1.715-1.143 0-2.095-.572-2.857-1.715"></path>
</svg>