<svg width="46" height="46" fill="none" stroke="currentColor" stroke-linecap="round" stroke-linejoin="round" stroke-width="1.5" viewBox="0 0 24 24" xmlns="http://www.w3.org/2000/svg">
  <path d="M14.857 19.428c-.762 1.143-1.714 1.715-2.857 1.715-1.143 0-2.095-.572-2.857-1.715"></path>
  <path d="M17.81 17.714H6.19a1.887 1.887 0 0 1-1.619-2.857 12.03 12.03 0 0 0 1.715-6.19V7.429a4.571 4.571 0 0 1 4.571-4.57h2.286a4.571 4.571 0 0 1 4.571 4.57v1.24c0 2.18.593 4.32 1.715 6.189a1.887 1.887 0 0 1-1.618 2.857Z"></path>
  <path d="M20 5.143c-.305-1.067-.686-1.83-1.143-2.286-.456-.457-1.218-.837-2.286-1.143"></path>
  <path d="M4.101 5.143c.238-1.067.585-1.83 1.042-2.286C5.6 2.4 6.395 2.02 7.53 1.714"></path>
</svg>