<svg width="46" height="46" fill="none" stroke="currentColor" stroke-linecap="round" stroke-linejoin="round" stroke-width="1.5" viewBox="0 0 24 24" xmlns="http://www.w3.org/2000/svg">
  <path d="m13.134 4.648 5.714 3.265A2.286 2.286 0 0 1 20 9.898v5.347c0 .82-.44 1.578-1.152 1.985l-5.714 3.265a2.286 2.286 0 0 1-2.268 0L5.152 17.23A2.286 2.286 0 0 1 4 15.245V9.898c0-.82.44-1.578 1.152-1.985l5.714-3.265a2.286 2.286 0 0 1 2.268 0Z" clip-rule="evenodd"></path>
  <path d="M16 10.857 8 6.286"></path>
  <path d="m4.571 9.143 6.345 3.416a2.283 2.283 0 0 0 2.168 0l6.345-3.416"></path>
  <path d="M12 13.143v7.428"></path>
</svg>