<svg width="46" height="46" fill="none" stroke="currentColor" stroke-linecap="round" stroke-linejoin="round" stroke-width="1.5" viewBox="0 0 24 24" xmlns="http://www.w3.org/2000/svg">
  <path d="M21.143 16.571V6.286A2.286 2.286 0 0 0 18.857 4H5.143a2.286 2.286 0 0 0-2.286 2.286V16.57a2.286 2.286 0 0 0 2.286 2.286h13.714a2.286 2.286 0 0 0 2.286-2.286Z" clip-rule="evenodd"></path>
  <path d="M9.714 15.429v-8c0-.632-.511-1.143-1.142-1.143H6.286c-.631 0-1.143.511-1.143 1.143v8c0 .63.512 1.143 1.143 1.143h2.286c.63 0 1.142-.512 1.142-1.143Zm9.143-6.858V7.43c0-.632-.511-1.143-1.143-1.143h-4.571c-.631 0-1.143.511-1.143 1.143v1.14c0 .632.512 1.143 1.143 1.143h4.571c.632 0 1.143-.511 1.143-1.143Zm0 6.858v-2.286c0-.631-.511-1.143-1.143-1.143h-4.571c-.631 0-1.143.512-1.143 1.143v2.286c0 .63.512 1.143 1.143 1.143h4.571c.632 0 1.143-.512 1.143-1.143Z" clip-rule="evenodd"></path>
</svg>