<svg width="46" height="46" fill="none" stroke="currentColor" stroke-linecap="round" stroke-linejoin="round" stroke-width="1.5" viewBox="0 0 24 24" xmlns="http://www.w3.org/2000/svg">
  <path d="M8.571 5.143h6.858a2.286 2.286 0 0 1 2.285 2.286v10.285A2.286 2.286 0 0 1 15.43 20H8.57a2.286 2.286 0 0 1-2.285-2.286V7.43A2.286 2.286 0 0 1 8.57 5.143Z" clip-rule="evenodd"></path>
  <path d="M6.286 10.857h11.428"></path>
  <path fill="currentColor" stroke="none" d="M8.571 14.286a1.143 1.143 0 1 0 0-2.286 1.143 1.143 0 0 0 0 2.286Z"></path>
  <path fill="currentColor" stroke="none" d="M10.857 14.286a1.143 1.143 0 1 0 0-2.286 1.143 1.143 0 0 0 0 2.286Z"></path>
  <path fill="currentColor" stroke="none" d="M13.143 14.286a1.143 1.143 0 1 0 0-2.286 1.143 1.143 0 0 0 0 2.286Z"></path>
  <path fill="currentColor" stroke="none" d="M15.429 14.286a1.143 1.143 0 1 0 0-2.286 1.143 1.143 0 0 0 0 2.286Z"></path>
  <path fill="currentColor" stroke="none" d="M8.571 16.572a1.143 1.143 0 1 0 0-2.286 1.143 1.143 0 0 0 0 2.286Z"></path>
  <path fill="currentColor" stroke="none" d="M10.857 16.572a1.143 1.143 0 1 0 0-2.286 1.143 1.143 0 0 0 0 2.286Z"></path>
  <path fill="currentColor" stroke="none" d="M13.143 16.572a1.143 1.143 0 1 0 0-2.286 1.143 1.143 0 0 0 0 2.286Z"></path>
  <path fill="currentColor" stroke="none" d="M15.429 16.572a1.143 1.143 0 1 0 0-2.286 1.143 1.143 0 0 0 0 2.286Z"></path>
  <path fill="currentColor" stroke="none" d="M8.571 18.857a1.143 1.143 0 1 0 0-2.285 1.143 1.143 0 0 0 0 2.285Z"></path>
  <path fill="currentColor" stroke="none" d="M10.857 18.857a1.143 1.143 0 1 0 0-2.286 1.143 1.143 0 0 0 0 2.286Z"></path>
  <path fill="currentColor" stroke="none" d="M13.143 18.857a1.143 1.143 0 1 0 0-2.286 1.143 1.143 0 0 0 0 2.286Z"></path>
  <path fill="currentColor" stroke="none" d="M15.429 18.857a1.143 1.143 0 1 0 0-2.286 1.143 1.143 0 0 0 0 2.286Z"></path>
</svg>