<svg width="46" height="46" fill="none" stroke="currentColor" stroke-linecap="round" stroke-linejoin="round" stroke-width="1.5" viewBox="0 0 24 24" xmlns="http://www.w3.org/2000/svg">
  <path d="M5.143 2.857h13.714a2.286 2.286 0 0 1 2.286 2.286v13.714a2.286 2.286 0 0 1-2.286 2.286H5.143a2.286 2.286 0 0 1-2.286-2.286V5.143a2.286 2.286 0 0 1 2.286-2.286Z" clip-rule="evenodd"></path>
  <path d="M2.857 7.429h18.286"></path>
  <path fill="currentColor" stroke="none" d="M12 13.143a1.143 1.143 0 1 0 0-2.286 1.143 1.143 0 0 0 0 2.286Z"></path>
  <path fill="currentColor" stroke="none" d="M7.429 13.143a1.143 1.143 0 1 0 0-2.286 1.143 1.143 0 0 0 0 2.286Z"></path>
  <path fill="currentColor" stroke="none" d="M16.571 13.143a1.143 1.143 0 1 0 0-2.286 1.143 1.143 0 0 0 0 2.286Z"></path>
  <path fill="currentColor" stroke="none" d="M12 17.714a1.143 1.143 0 1 0 0-2.286 1.143 1.143 0 0 0 0 2.286Z"></path>
  <path fill="currentColor" stroke="none" d="M7.429 17.714a1.143 1.143 0 1 0 0-2.285 1.143 1.143 0 0 0 0 2.285Z"></path>
  <path fill="currentColor" stroke="none" d="M16.571 17.714a1.143 1.143 0 1 0 0-2.286 1.143 1.143 0 0 0 0 2.286Z"></path>
</svg>