<svg width="46" height="46" fill="none" stroke="currentColor" stroke-linecap="round" stroke-linejoin="round" stroke-width="1.5" viewBox="0 0 24 24" xmlns="http://www.w3.org/2000/svg">
  <path d="M2.857 16.571V9.714A2.286 2.286 0 0 1 5.143 7.43h13.714a2.286 2.286 0 0 1 2.286 2.285v6.857a2.286 2.286 0 0 1-2.286 2.286H5.143a2.286 2.286 0 0 1-2.286-2.286Z" clip-rule="evenodd"></path>
  <path fill="currentColor" fill-rule="evenodd" stroke="none" d="M19.429 10.286a1.143 1.143 0 1 0-2.286 0 1.143 1.143 0 0 0 2.286 0Z" clip-rule="evenodd"></path>
  <path d="M15.429 13.143a3.429 3.429 0 1 0-6.858 0 3.429 3.429 0 0 0 6.858 0Zm-4.572-8h2.286c.631 0 1.143.511 1.143 1.143v1.143H9.714V6.286c0-.631.512-1.143 1.143-1.143Z" clip-rule="evenodd"></path>
</svg>