<svg width="46" height="46" fill="none" stroke="currentColor" stroke-linecap="round" stroke-linejoin="round" stroke-width="1.5" viewBox="0 0 24 24" xmlns="http://www.w3.org/2000/svg">
  <path d="M17.714 18.857H5.143a2.286 2.286 0 0 1-2.286-2.286V9.714A2.286 2.286 0 0 1 5.143 7.43h1.143"></path>
  <path d="m8.616 6.286 1.188-1.143h4.48l2.194 2.286h2.38a2.286 2.286 0 0 1 2.285 2.285v6.857c0 .574-.212 1.099-.561 1.5"></path>
  <path d="m4 5.143 16 16"></path>
  <path d="M15.429 13.143A3.429 3.429 0 0 0 12 9.714"></path>
  <path d="M9.492 10.805a3.429 3.429 0 0 0 4.803 4.885"></path>
</svg>