<svg width="46" height="46" fill="none" stroke="currentColor" stroke-linecap="round" stroke-linejoin="round" stroke-width="1.5" viewBox="0 0 24 24" xmlns="http://www.w3.org/2000/svg">
  <path d="M15.429 4H8.57a2.286 2.286 0 0 0-2.285 2.286v11.428A2.286 2.286 0 0 0 8.57 20h6.858a2.286 2.286 0 0 0 2.285-2.286V6.286A2.286 2.286 0 0 0 15.43 4Z"></path>
  <path d="M5.143 6.857h1.143v10.286H5.143a2.286 2.286 0 0 1-2.286-2.286V9.143a2.286 2.286 0 0 1 2.286-2.286Z"></path>
  <path d="M19.143 17.143H18V6.857h1.143a2.286 2.286 0 0 1 2.286 2.286v5.714a2.286 2.286 0 0 1-2.286 2.286Z"></path>
</svg>