<svg width="46" height="46" fill="none" stroke="currentColor" stroke-linecap="round" stroke-linejoin="round" stroke-width="1.5" viewBox="0 0 24 24" xmlns="http://www.w3.org/2000/svg">
  <path d="M5.143 6.286H4c-.631 0-1.143.511-1.143 1.143v9.142c0 .632.512 1.143 1.143 1.143h1.143c.631 0 1.143-.511 1.143-1.143V7.43c0-.632-.512-1.143-1.143-1.143Zm14.857 0h-1.143c-.631 0-1.143.511-1.143 1.143v9.142c0 .632.512 1.143 1.143 1.143H20c.631 0 1.143-.511 1.143-1.143V7.43c0-.632-.512-1.143-1.143-1.143Zm-5.714-1.143H9.714c-.63 0-1.143.511-1.143 1.143v11.428c0 .631.512 1.143 1.143 1.143h4.572c.63 0 1.143-.512 1.143-1.143V6.286c0-.631-.512-1.143-1.143-1.143Z"></path>
</svg>