<svg width="46" height="46" fill="none" stroke="currentColor" stroke-linecap="round" stroke-linejoin="round" stroke-width="1.5" viewBox="0 0 24 24" xmlns="http://www.w3.org/2000/svg">
  <path d="M8.571 5.143H6.286c-.631 0-1.143.511-1.143 1.143v12.571c0 .631.511 1.143 1.143 1.143h11.428c.631 0 1.143-.512 1.143-1.143V6.286c0-.631-.512-1.143-1.143-1.143H15.43"></path>
  <path d="M9.714 4h4.572a1.143 1.143 0 1 1 0 2.286H9.714a1.143 1.143 0 1 1 0-2.286Z" clip-rule="evenodd"></path>
  <path d="M10.857 9.714h5.714"></path>
  <path d="M10.857 13.143h5.714"></path>
  <path d="M10.857 16.571h5.714"></path>
  <path d="M7.429 9.714H8.57"></path>
  <path d="M7.429 13.143H8.57"></path>
  <path d="M7.429 16.571H8.57"></path>
</svg>