<svg width="46" height="46" fill="none" stroke="currentColor" stroke-linecap="round" stroke-linejoin="round" stroke-width="1.5" viewBox="0 0 24 24" xmlns="http://www.w3.org/2000/svg">
  <path d="M8.571 5.143c-.504 0-1.187-.005-2.283-.006a1.143 1.143 0 0 0-1.137 1.007l-.008.136v12.57c0 .63.512 1.142 1.143 1.143L17.714 20c.586.001 1.07-.44 1.136-1.008l.007-.134V6.286c0-.632-.512-1.143-1.143-1.143H15.43"></path>
  <path d="M9.714 4h4.572a1.143 1.143 0 1 1 0 2.286H9.714a1.143 1.143 0 1 1 0-2.286Z" clip-rule="evenodd"></path>
  <path d="M7.429 9.714h5.714"></path>
  <path d="M7.429 12h8"></path>
  <path d="M7.429 14.286h3.428"></path>
  <path d="M7.429 16.571h6.857"></path>
</svg>