<svg width="46" height="46" fill="none" stroke="currentColor" stroke-linecap="round" stroke-linejoin="round" stroke-width="1.5" viewBox="0 0 24 24" xmlns="http://www.w3.org/2000/svg">
  <path d="m12 16.571-3.429-3.428L12 9.714"></path>
  <path d="M8.571 13.143h12.572"></path>
  <path d="m8.571 5.143-2.283-.006a1.143 1.143 0 0 0-1.137 1.007l-.008.136v12.57c0 .63.512 1.142 1.143 1.143L17.714 20c.586.001 1.07-.44 1.136-1.008l.007-.134V16"></path>
  <path d="M18.857 10.857V6.28c0-.586-.441-1.07-1.01-1.135l-.136-.008-2.282.006"></path>
  <path d="M9.714 4h4.572a1.143 1.143 0 1 1 0 2.286H9.714a1.143 1.143 0 1 1 0-2.286Z" clip-rule="evenodd"></path>
</svg>