<svg width="46" height="46" fill="none" stroke="currentColor" stroke-linecap="round" stroke-linejoin="round" stroke-width="1.5" viewBox="0 0 24 24" xmlns="http://www.w3.org/2000/svg">
  <path d="M12 12a2.286 2.286 0 1 0 0-4.571A2.286 2.286 0 0 0 12 12Z"></path>
  <path d="M4 7.429h1.143V6.286A2.286 2.286 0 0 1 7.429 4h9.142a2.286 2.286 0 0 1 2.286 2.286v11.428A2.286 2.286 0 0 1 16.571 20H7.43a2.286 2.286 0 0 1-2.286-2.286v-1.143H4"></path>
  <path d="M4 12h1.143"></path>
  <path d="M4 9.714h1.143"></path>
  <path d="M4 14.286h1.143"></path>
  <path d="M15.429 15.429v-1.143A2.286 2.286 0 0 0 13.143 12h-2.286a2.286 2.286 0 0 0-2.286 2.286v1.143c0 .63.512 1.142 1.143 1.142h4.572c.63 0 1.143-.511 1.143-1.142Z" clip-rule="evenodd"></path>
</svg>