<svg width="46" height="46" fill="none" stroke="currentColor" stroke-linecap="round" stroke-linejoin="round" stroke-width="1.5" viewBox="0 0 24 24" xmlns="http://www.w3.org/2000/svg">
  <path d="M20 16.572V5.142a2.286 2.286 0 0 0-2.286-2.285H8.571a2.286 2.286 0 0 0-2.285 2.286V16.57a2.286 2.286 0 0 0 2.285 2.286h9.143A2.286 2.286 0 0 0 20 16.572Z" clip-rule="evenodd"></path>
  <path d="m6.063 5.64-2.29.833a2.286 2.286 0 0 0-1.366 2.93l3.909 10.74a2.286 2.286 0 0 0 2.93 1.366l6.363-2.513"></path>
  <path d="M9.714 8.571h5.715"></path>
  <path d="M9.714 10.857h6.857"></path>
  <path d="M9.714 13.143h3.429"></path>
</svg>