<svg width="46" height="46" fill="none" stroke="currentColor" stroke-linecap="round" stroke-linejoin="round" stroke-width="1.5" viewBox="0 0 24 24" xmlns="http://www.w3.org/2000/svg">
  <path d="M7.429 4h9.142a2.286 2.286 0 0 1 2.286 2.286v11.428A2.286 2.286 0 0 1 16.571 20H7.43a2.286 2.286 0 0 1-2.286-2.286V6.286A2.286 2.286 0 0 1 7.429 4Z" clip-rule="evenodd"></path>
  <path d="m16.231 20-4.166-2.227a2.286 2.286 0 0 1-1.208-2.015V8.242c0-.843.465-1.618 1.208-2.015L16.231 4"></path>
  <path fill="currentColor" stroke="none" d="M13.143 13.143a1.143 1.143 0 1 0 0-2.286 1.143 1.143 0 0 0 0 2.286Z"></path>
</svg>