<svg width="46" height="46" fill="none" stroke="currentColor" stroke-linecap="round" stroke-linejoin="round" stroke-width="1.5" viewBox="0 0 24 24" xmlns="http://www.w3.org/2000/svg">
  <path d="M7.429 4h2.285v16H7.43a2.286 2.286 0 0 1-2.286-2.286V6.286A2.286 2.286 0 0 1 7.429 4Zm5.373-2.27 4.572 1.714a2.286 2.286 0 0 1 1.483 2.14v12.832c0 .953-.59 1.806-1.483 2.14l-4.571 1.714a2.286 2.286 0 0 1-3.089-2.14V3.87a2.286 2.286 0 0 1 3.088-2.14Z" clip-rule="evenodd"></path>
  <path fill="currentColor" stroke="none" d="M12 13.143a1.143 1.143 0 1 0 0-2.286 1.143 1.143 0 0 0 0 2.286Z"></path>
</svg>