<svg width="46" height="46" fill="none" stroke="currentColor" stroke-linecap="round" stroke-linejoin="round" stroke-width="1.5" viewBox="0 0 24 24" xmlns="http://www.w3.org/2000/svg">
  <path d="M16.572 18.857V9.714a2.286 2.286 0 0 0-2.286-2.285H5.143a2.286 2.286 0 0 0-2.286 2.285v9.143a2.286 2.286 0 0 0 2.286 2.286h9.143a2.286 2.286 0 0 0 2.286-2.286Z" clip-rule="evenodd"></path>
  <path d="M16.571 16.571h2.286a2.286 2.286 0 0 0 2.286-2.285v-9.14a2.286 2.286 0 0 0-2.286-2.285h-.004l-9.143.016a2.286 2.286 0 0 0-2.28 2.286v2.266"></path>
  <path d="M9.714 10.857v6.857"></path>
  <path d="M13.143 14.286H6.286"></path>
</svg>