<svg width="46" height="46" fill="none" stroke="currentColor" stroke-linecap="round" stroke-linejoin="round" stroke-width="1.5" viewBox="0 0 24 24" xmlns="http://www.w3.org/2000/svg">
  <path d="M16.571 18.857V12a2.286 2.286 0 0 0-2.285-2.286H4A2.286 2.286 0 0 0 1.714 12v6.857A2.286 2.286 0 0 0 4 21.143h10.286a2.286 2.286 0 0 0 2.285-2.286Z" clip-rule="evenodd"></path>
  <path d="M18.857 18.857v-7.994a3.429 3.429 0 0 0-3.428-3.429h-.006l-10.28.018"></path>
  <path d="M21.143 16.571V9.722a4.571 4.571 0 0 0-4.572-4.571h-.008l-9.135.016"></path>
</svg>