<svg width="46" height="46" fill="none" stroke="currentColor" stroke-linecap="round" stroke-linejoin="round" stroke-width="1.5" viewBox="0 0 24 24" xmlns="http://www.w3.org/2000/svg">
  <path d="M12 21.143a9.143 9.143 0 1 0 0-18.286 9.143 9.143 0 0 0 0 18.286Z"></path>
  <path fill="currentColor" stroke="none" d="M9.143 10.286a1.143 1.143 0 1 0 0-2.286 1.143 1.143 0 0 0 0 2.286Z"></path>
  <path fill="currentColor" stroke="none" d="M14.857 10.286a1.143 1.143 0 1 0 0-2.286 1.143 1.143 0 0 0 0 2.286Z"></path>
  <path d="M7.429 14.286c.761 2.286 2.285 3.428 4.571 3.428 2.286 0 3.81-1.142 4.571-3.428H7.43Z" clip-rule="evenodd"></path>
</svg>