<svg width="46" height="46" fill="none" stroke="currentColor" stroke-linecap="round" stroke-linejoin="round" stroke-width="1.5" viewBox="0 0 24 24" xmlns="http://www.w3.org/2000/svg">
  <path d="M20 16.572v-8l-5.714-5.715H8.57a2.286 2.286 0 0 0-2.285 2.286V16.57a2.286 2.286 0 0 0 2.285 2.286h9.143A2.286 2.286 0 0 0 20 16.572Z" clip-rule="evenodd"></path>
  <path d="M6.286 5.143A2.286 2.286 0 0 0 4 7.429v11.428a2.286 2.286 0 0 0 2.286 2.286h9.143a2.286 2.286 0 0 0 2.285-2.286"></path>
  <path d="M14.286 2.857v3.429A2.286 2.286 0 0 0 16.57 8.57H20"></path>
</svg>