<svg width="46" height="46" fill="none" stroke="currentColor" stroke-linecap="round" stroke-linejoin="round" stroke-width="1.5" viewBox="0 0 24 24" xmlns="http://www.w3.org/2000/svg">
  <path d="M18.521 6.538c.218.638.336 1.322.336 2.034V12"></path>
  <path d="M18.857 14.32c0 3.137-1.435 6.823-6.857 6.823a9.34 9.34 0 0 1-2.303-.265"></path>
  <path d="M7.684 19.985c-1.93-1.338-2.541-3.618-2.541-5.665V9.714c0-1.79.748-3.405 1.949-4.55"></path>
  <path d="M9.002 3.617A6.258 6.258 0 0 1 12 2.857c2.003 0 3.992.826 5.143 2.286"></path>
  <path d="M12 18.857c-1.524-.762-2.286-1.893-2.286-3.394V9.714a2.286 2.286 0 0 1 4.572 0v4.606c0 .762.38 1.143 1.143 1.143.761 0 1.142-.381 1.142-1.143V9.218a3.43 3.43 0 0 0-.347-1.504C15.387 6 13.979 5.143 12 5.143c-1.98 0-3.387.857-4.224 2.57a3.429 3.429 0 0 0-.347 1.505v6.21c0 1.143.19 1.905.571 2.286"></path>
  <path d="M12 9.714v4.606c0 2.263 1.143 3.394 3.429 3.394"></path>
</svg>