<svg width="46" height="46" fill="none" stroke="currentColor" stroke-linecap="round" stroke-linejoin="round" stroke-width="1.5" viewBox="0 0 24 24" xmlns="http://www.w3.org/2000/svg">
  <path d="m20 7.429.35-2.098A1.143 1.143 0 0 0 19.222 4H4.778A1.143 1.143 0 0 0 3.65 5.33L4 7.43"></path>
  <path d="m20.216 19.134.572-2.285a1.143 1.143 0 0 0-1.109-1.42H4.321a1.143 1.143 0 0 0-1.109 1.42l.572 2.285c.127.51.584.866 1.108.866h14.216c.524 0 .981-.357 1.108-.866Z"></path>
  <path d="m20 13.143.64-1.922a1.143 1.143 0 0 0-1.085-1.505l-15.111.02a1.143 1.143 0 0 0-1.082 1.506l.638 1.9"></path>
</svg>