<svg width="46" height="46" fill="none" stroke="currentColor" stroke-linecap="round" stroke-linejoin="round" stroke-width="1.5" viewBox="0 0 24 24" xmlns="http://www.w3.org/2000/svg">
  <path d="M20 9.714a2.285 2.285 0 0 0-2.285-2.289L12 7.43 9.714 5.143H5.143C4.512 5.143 4 5.654 4 6.286v3.428"></path>
  <path d="m3.212 11.133 1.498 5.993a2.286 2.286 0 0 0 2.218 1.731h10.144a2.286 2.286 0 0 0 2.218-1.731l1.498-5.995a1.143 1.143 0 0 0-1.109-1.42l-15.358.002a1.143 1.143 0 0 0-1.109 1.42Z" clip-rule="evenodd"></path>
</svg>