<svg width="46" height="46" fill="none" stroke="currentColor" stroke-linecap="round" stroke-linejoin="round" stroke-width="1.5" viewBox="0 0 24 24" xmlns="http://www.w3.org/2000/svg">
  <path d="m8.4 10.863.171-.006V9.714a1.143 1.143 0 0 1 2.286 0V8.571a1.143 1.143 0 0 1 2.286 0v1.143a1.143 1.143 0 0 1 2.286 0v1.143a1.143 1.143 0 0 1 2.285 0v4.572A5.714 5.714 0 0 1 12 21.143h-.571A5.143 5.143 0 0 1 6.286 16v-2.857c0-1.205.932-2.192 2.115-2.28Z" clip-rule="evenodd"></path>
  <path d="M8.572 9.714v3.429"></path>
  <path d="M10.857 8.571v2.286"></path>
  <path d="M13.143 8.571v2.286"></path>
  <path d="M15.429 9.714V12"></path>
</svg>