<svg width="46" height="46" fill="none" stroke="currentColor" stroke-linecap="round" stroke-linejoin="round" stroke-width="1.5" viewBox="0 0 24 24" xmlns="http://www.w3.org/2000/svg">
  <path d="m9.713 6.286-2.286.003a1.143 1.143 0 0 0-1.141 1.143v2.282c0 .586.44 1.07 1.01 1.135l.134.008 2.285-.003c.631 0 1.142-.512 1.142-1.143V7.43c0-.586-.441-1.069-1.01-1.135l-.134-.008Zm6.857 0-2.286.003a1.143 1.143 0 0 0-1.141 1.143v2.282c0 .586.44 1.07 1.01 1.135l.134.008 2.286-.003c.63 0 1.141-.512 1.141-1.143V7.43c0-.586-.441-1.069-1.01-1.135l-.134-.008Zm-6.857 6.857-2.286.003a1.143 1.143 0 0 0-1.141 1.143v2.282c0 .586.44 1.07 1.01 1.135l.134.008 2.285-.003c.631 0 1.142-.512 1.142-1.143v-2.282c0-.586-.441-1.069-1.01-1.135l-.134-.008Z" clip-rule="evenodd"></path>
  <path d="M15.429 13.143v4.571"></path>
  <path d="M17.714 15.429h-4.571"></path>
</svg>