<svg width="46" height="46" fill="none" stroke="currentColor" stroke-linecap="round" stroke-linejoin="round" stroke-width="1.5" viewBox="0 0 24 24" xmlns="http://www.w3.org/2000/svg">
  <path d="M14.286 4h4.571C19.488 4 20 4.512 20 5.143v4.571c0 .631-.512 1.143-1.143 1.143h-4.571a1.143 1.143 0 0 1-1.143-1.143V5.143c0-.631.511-1.143 1.143-1.143ZM5.143 4h4.571c.631 0 1.143.512 1.143 1.143v4.571c0 .631-.511 1.143-1.143 1.143H5.143A1.143 1.143 0 0 1 4 9.714V5.143C4 4.512 4.512 4 5.143 4Zm9.143 9.143h4.571c.631 0 1.143.511 1.143 1.143v4.571c0 .631-.512 1.143-1.143 1.143h-4.571a1.143 1.143 0 0 1-1.143-1.143v-4.571c0-.631.511-1.143 1.143-1.143Zm-9.143 0h4.571c.631 0 1.143.511 1.143 1.143v4.571c0 .631-.511 1.143-1.143 1.143H5.143A1.143 1.143 0 0 1 4 18.857v-4.571c0-.631.512-1.143 1.143-1.143Z"></path>
</svg>