<svg width="46" height="46" fill="currentColor" viewBox="0 0 24 24" xmlns="http://www.w3.org/2000/svg">
  <path fill-rule="evenodd" d="M11.428 10.286h1.143c.632 0 1.143.511 1.143 1.143v1.142c0 .632-.511 1.143-1.143 1.143h-1.143a1.143 1.143 0 0 1-1.142-1.143v-1.143c0-.63.511-1.142 1.143-1.142Zm0-4.572h1.143c.632 0 1.143.512 1.143 1.143V8c0 .631-.511 1.143-1.143 1.143h-1.143A1.143 1.143 0 0 1 10.287 8V6.857c0-.631.511-1.143 1.143-1.143ZM16 10.286h1.143c.631 0 1.143.511 1.143 1.143v1.142c0 .632-.512 1.143-1.143 1.143H16a1.143 1.143 0 0 1-1.143-1.143v-1.143c0-.63.512-1.142 1.143-1.142Zm0-4.572h1.143c.631 0 1.143.512 1.143 1.143V8c0 .631-.512 1.143-1.143 1.143H16A1.143 1.143 0 0 1 14.857 8V6.857c0-.631.512-1.143 1.143-1.143Zm0 9.143h1.143c.631 0 1.143.512 1.143 1.143v1.143c0 .631-.512 1.143-1.143 1.143H16a1.143 1.143 0 0 1-1.143-1.143V16c0-.631.512-1.143 1.143-1.143Zm-4.572 0h1.143c.632 0 1.143.512 1.143 1.143v1.143c0 .631-.511 1.143-1.143 1.143h-1.143a1.143 1.143 0 0 1-1.142-1.143V16c0-.631.511-1.143 1.143-1.143Zm-4.57-4.571H8c.631 0 1.143.511 1.143 1.143v1.142c0 .632-.512 1.143-1.143 1.143H6.857a1.143 1.143 0 0 1-1.143-1.143v-1.143c0-.63.512-1.142 1.143-1.142Zm0-4.572H8c.631 0 1.143.512 1.143 1.143V8c0 .631-.512 1.143-1.143 1.143H6.857A1.143 1.143 0 0 1 5.714 8V6.857c0-.631.512-1.143 1.143-1.143Zm0 9.143H8c.631 0 1.143.512 1.143 1.143v1.143c0 .631-.512 1.143-1.143 1.143H6.857a1.143 1.143 0 0 1-1.143-1.143V16c0-.631.512-1.143 1.143-1.143Z" clip-rule="evenodd"></path>
</svg>