<svg width="46" height="46" fill="none" stroke="currentColor" stroke-linecap="round" stroke-linejoin="round" stroke-width="1.5" viewBox="0 0 24 24" xmlns="http://www.w3.org/2000/svg">
  <path d="M6 10.571a1.752 1.752 0 0 1 1.97 1.067l.601 1.505V6.286a1.143 1.143 0 1 1 2.286 0V4.57a1.143 1.143 0 0 1 2.286 0v1.143a1.143 1.143 0 0 1 2.286 0V7.43a1.143 1.143 0 1 1 2.285 0v9.142a4.571 4.571 0 0 1-4.571 4.572 5.855 5.855 0 0 1-5.68-4.435l-.034-.137-2.206-4.41A1.113 1.113 0 0 1 6 10.57Z" clip-rule="evenodd"></path>
  <path d="M10.857 5.143V12"></path>
  <path d="M13.143 5.143v5.714"></path>
  <path d="M15.429 7.429V12"></path>
</svg>