<svg width="46" height="46" fill="none" stroke="currentColor" stroke-linecap="round" stroke-linejoin="round" stroke-width="1.5" viewBox="0 0 24 24" xmlns="http://www.w3.org/2000/svg">
  <path d="M14.286 5.143h2.675c.457 0 .87.272 1.05.692l3.132 7.308v4.571A2.286 2.286 0 0 1 18.857 20H5.143a2.286 2.286 0 0 1-2.286-2.286v-4.571L5.99 5.835c.18-.42.593-.692 1.05-.692h2.675"></path>
  <path d="M15.429 8.67 12 12 8.571 8.67"></path>
  <path d="M12 1.714V12"></path>
  <path d="M2.857 13.143H7.43c.63 0 1.142.511 1.142 1.143v1.143c0 .63.512 1.142 1.143 1.142h4.572c.63 0 1.143-.511 1.143-1.143v-1.142c0-.631.511-1.143 1.143-1.143h4.57"></path>
</svg>