<svg width="46" height="46" fill="none" stroke="currentColor" stroke-linecap="round" stroke-linejoin="round" stroke-width="1.5" viewBox="0 0 24 24" xmlns="http://www.w3.org/2000/svg">
  <path d="M17.714 12h-8"></path>
  <path d="M17.714 16.571h-8"></path>
  <path d="M17.714 7.428h-8"></path>
  <path fill="currentColor" fill-rule="evenodd" stroke="none" d="M6.72 9.143V6.66h-.042l-.777.524V6.48l.82-.558h.818v3.22H6.72Z" clip-rule="evenodd"></path>
  <path fill="currentColor" fill-rule="evenodd" stroke="none" d="M5.6 11.507c0-.654.515-1.1 1.267-1.1.746 0 1.19.403 1.19.955 0 .381-.17.633-.683 1.098l-.634.573v.043h1.355v.638H5.646v-.547l1.152-1.042c.397-.364.464-.502.464-.692 0-.223-.156-.408-.437-.408-.3 0-.476.203-.476.482H5.6Zm.814 5.406v-.554h.413c.272 0 .449-.158.449-.39 0-.219-.168-.38-.444-.38-.29 0-.467.154-.48.415h-.746c.011-.618.5-1.026 1.266-1.026.754 0 1.167.395 1.165.875 0 .388-.25.645-.603.728v.042c.464.065.732.352.732.777 0 .575-.549.973-1.323.973-.766 0-1.286-.413-1.315-1.047h.781c.011.248.212.402.523.402.299 0 .502-.163.502-.407 0-.254-.192-.408-.507-.408h-.413Z" clip-rule="evenodd"></path>
</svg>