<svg width="46" height="46" fill="none" stroke="currentColor" stroke-linecap="round" stroke-linejoin="round" stroke-width="1.5" viewBox="0 0 24 24" xmlns="http://www.w3.org/2000/svg">
  <path d="M17.714 12h-8"></path>
  <path d="M17.714 16.571h-8"></path>
  <path d="M17.714 7.429h-8"></path>
  <path fill="currentColor" fill-rule="evenodd" stroke="none" d="M6.284 8.571c.572 0 1.143-.57 1.143-1.142s-.571-1.143-1.143-1.143c-.571 0-1.141.571-1.141 1.143 0 .571.57 1.142 1.141 1.142Zm0 4.572c.572 0 1.143-.572 1.143-1.143 0-.571-.571-1.143-1.143-1.143-.571 0-1.141.572-1.141 1.143 0 .572.57 1.143 1.141 1.143Zm0 4.571c.572 0 1.143-.571 1.143-1.142 0-.572-.571-1.143-1.143-1.143-.571 0-1.141.571-1.141 1.143 0 .57.57 1.142 1.141 1.142Z" clip-rule="evenodd"></path>
</svg>