<svg width="46" height="46" fill="none" stroke="currentColor" stroke-linecap="round" stroke-linejoin="round" stroke-width="1.5" viewBox="0 0 24 24" xmlns="http://www.w3.org/2000/svg">
  <path d="m12 21.19.721-.814a58.798 58.798 0 0 0 2.21-2.672l.54-.713c2.257-3.042 3.386-5.454 3.386-7.238 0-3.809-3.07-6.896-6.857-6.896-3.787 0-6.857 3.087-6.857 6.896 0 1.784 1.128 4.196 3.386 7.238l.54.713A62.663 62.663 0 0 0 12 21.19Z" clip-rule="evenodd"></path>
  <path d="M12 12.572a2.857 2.857 0 1 0 0-5.715 2.857 2.857 0 0 0 0 5.715Z"></path>
</svg>