<svg width="46" height="46" fill="none" stroke="currentColor" stroke-linecap="round" stroke-linejoin="round" stroke-width="1.5" viewBox="0 0 24 24" xmlns="http://www.w3.org/2000/svg">
  <path d="m7.429 10.857-.007-2.28C7.414 4.002 8.94 1.714 12 1.714c3.06 0 4.584 2.288 4.572 6.863v2.28H7.428Zm0 0h9.168c1.205 0 2.192.933 2.28 2.115l.006.177-.02 6.857a2.286 2.286 0 0 1-2.285 2.28h-9.15A2.286 2.286 0 0 1 5.144 20v-6.857a2.286 2.286 0 0 1 2.286-2.286Z" clip-rule="evenodd"></path>
  <path fill="currentColor" stroke="none" d="M12 18.286a1.714 1.714 0 1 0 0-3.429 1.714 1.714 0 0 0 0 3.429Z"></path>
</svg>