<svg width="46" height="46" fill="none" stroke="currentColor" stroke-linecap="round" stroke-linejoin="round" stroke-width="1.5" viewBox="0 0 24 24" xmlns="http://www.w3.org/2000/svg">
  <path d="M8.795 5.194a3.43 3.43 0 0 1 3.078-2.205L12 2.984a3.306 3.306 0 0 1 3.429 3.304v4.57c0 .442-.085.866-.238 1.255"></path>
  <path d="M17.714 10.857c0 1.05-.282 2.033-.776 2.878"></path>
  <path d="M15.31 15.516a5.714 5.714 0 0 1-9.024-4.659"></path>
  <path d="M13.665 13.855a3.429 3.429 0 0 1-5.093-2.998V8.571"></path>
  <path d="m4 4 16 16"></path>
  <path d="M12 16.571v4.572"></path>
</svg>