<svg width="46" height="46" fill="none" stroke="currentColor" stroke-linecap="round" stroke-linejoin="round" stroke-width="1.5" viewBox="0 0 24 24" xmlns="http://www.w3.org/2000/svg">
  <path d="M17.714 4h-8A2.286 2.286 0 0 0 7.43 6.286V16.57a2.286 2.286 0 0 0 2.285 2.286h8A2.286 2.286 0 0 0 20 16.571V6.286A2.286 2.286 0 0 0 17.714 4Z" clip-rule="evenodd"></path>
  <path d="M7.429 6.286a2.286 2.286 0 0 0-2.286 2.286v9.142a3.429 3.429 0 0 0 3.428 3.429h6.857a2.286 2.286 0 0 0 2.286-2.286"></path>
</svg>