<svg width="46" height="46" fill="none" stroke="currentColor" stroke-linecap="round" stroke-linejoin="round" stroke-width="1.5" viewBox="0 0 24 24" xmlns="http://www.w3.org/2000/svg">
  <path d="M6.286 4h11.428A2.286 2.286 0 0 1 20 6.286v11.428A2.286 2.286 0 0 1 17.714 20H6.286A2.286 2.286 0 0 1 4 17.714V6.286A2.286 2.286 0 0 1 6.286 4Z" clip-rule="evenodd"></path>
  <path d="M9.714 8.571h4.572c.63 0 1.143.512 1.143 1.143v4.572c0 .63-.512 1.143-1.143 1.143H9.714a1.143 1.143 0 0 1-1.143-1.143V9.714c0-.631.512-1.143 1.143-1.143Z" clip-rule="evenodd"></path>
</svg>