<svg width="46" height="46" fill="none" stroke="currentColor" stroke-linecap="round" stroke-linejoin="round" stroke-width="1.5" viewBox="0 0 24 24" xmlns="http://www.w3.org/2000/svg">
  <path d="M6.286 4h11.428A2.286 2.286 0 0 1 20 6.286v11.428A2.286 2.286 0 0 1 17.714 20H6.286A2.286 2.286 0 0 1 4 17.714V6.286A2.286 2.286 0 0 1 6.286 4Z" clip-rule="evenodd"></path>
  <path d="M20 15.429 16.571 12l-3.428 3.411"></path>
  <path d="M17.714 20 7.43 9.714 4 13.143"></path>
  <path fill="currentColor" stroke="none" d="M16 9.143a1.143 1.143 0 1 0 0-2.286 1.143 1.143 0 0 0 0 2.286Z"></path>
</svg>