<svg width="46" height="46" fill="none" stroke="currentColor" stroke-linecap="round" stroke-linejoin="round" stroke-width="1.5" viewBox="0 0 24 24" xmlns="http://www.w3.org/2000/svg">
  <path d="M12 21.143a9.143 9.143 0 1 0 0-18.286 9.143 9.143 0 0 0 0 18.286Z"></path>
  <path d="M12 13.143V12l1.616-1.616c.429-.429.67-1.01.67-1.617v-.196c0-.7-.396-1.34-1.022-1.654l-.242-.12a2.286 2.286 0 0 0-2.044 0l-.12.06a2.067 2.067 0 0 0-1.144 1.85v1.007"></path>
  <path fill="currentColor" stroke="none" d="M12 17.714a1.143 1.143 0 1 0 0-2.285 1.143 1.143 0 0 0 0 2.285Z"></path>
</svg>