<svg width="46" height="46" fill="none" stroke="currentColor" stroke-linecap="round" stroke-linejoin="round" stroke-width="1.5" viewBox="0 0 24 24" xmlns="http://www.w3.org/2000/svg">
  <path d="M20 14.286v-8A2.286 2.286 0 0 0 17.714 4h-8A2.286 2.286 0 0 0 7.43 6.286v8a2.286 2.286 0 0 0 2.285 2.285h8A2.286 2.286 0 0 0 20 14.286Z" clip-rule="evenodd"></path>
  <path d="M16.571 16.571v1.143A2.286 2.286 0 0 1 14.286 20h-8A2.286 2.286 0 0 1 4 17.714v-8a2.286 2.286 0 0 1 2.286-2.286h1.143"></path>
</svg>