<svg width="46" height="46" fill="none" stroke="currentColor" stroke-linecap="round" stroke-linejoin="round" stroke-width="1.5" viewBox="0 0 24 24" xmlns="http://www.w3.org/2000/svg">
  <path d="M16.571 14.286v-8A2.286 2.286 0 0 0 14.286 4h-8A2.286 2.286 0 0 0 4 6.286v8a2.286 2.286 0 0 0 2.286 2.285h8a2.286 2.286 0 0 0 2.285-2.285Z" clip-rule="evenodd"></path>
  <path d="M7.429 16.571v1.143A2.286 2.286 0 0 0 9.714 20h8A2.286 2.286 0 0 0 20 17.714v-8a2.286 2.286 0 0 0-2.286-2.286h-1.143"></path>
</svg>