<svg width="46" height="46" fill="none" stroke="currentColor" stroke-linecap="round" stroke-linejoin="round" stroke-width="1.5" viewBox="0 0 24 24" xmlns="http://www.w3.org/2000/svg">
  <path d="M12 22.286c3.429-2.86 4.571-6.288 4.571-10.286 0-3.997-1.142-7.426-4.571-10.286C8.571 4.574 7.429 8.003 7.429 12c0 3.998 1.142 7.426 4.571 10.286Z" clip-rule="evenodd"></path>
  <path d="M7.892 16.413c-.485.28-.931.624-1.338 1.032-1.28 1.278-1.932 2.941-1.959 4.988 2.867-.125 4.437-.874 5.63-1.882"></path>
  <path d="M16.07 16.413c.486.28.932.624 1.34 1.032 1.278 1.278 1.93 2.941 1.957 4.988-2.866-.125-4.436-.874-5.629-1.882"></path>
  <path d="M12 10.857a2.286 2.286 0 1 0 0-4.571 2.286 2.286 0 0 0 0 4.571Z"></path>
</svg>