<svg width="46" height="46" fill="none" stroke="currentColor" stroke-linecap="round" stroke-linejoin="round" stroke-width="1.5" viewBox="0 0 24 24" xmlns="http://www.w3.org/2000/svg">
  <path d="M12 4c.402 0 .796.03 1.182.087l.58 1.759c.51.145.992.352 1.441.612l1.669-.804c.59.454 1.115.988 1.56 1.587l-.834 1.654c.251.452.45.939.586 1.45l1.748.61a8.073 8.073 0 0 1-.019 2.227l-1.759.58c-.145.51-.352.992-.612 1.441l.804 1.669a8.044 8.044 0 0 1-1.587 1.56l-1.654-.834a6.36 6.36 0 0 1-1.45.586l-.61 1.748a8.073 8.073 0 0 1-2.227-.019l-.58-1.759a6.362 6.362 0 0 1-1.441-.612l-1.669.804a8.046 8.046 0 0 1-1.56-1.587l.834-1.654a6.36 6.36 0 0 1-.586-1.452l-1.749-.61a8.076 8.076 0 0 1 .02-2.225l1.759-.58c.145-.51.352-.992.612-1.441l-.804-1.669a8.047 8.047 0 0 1 1.587-1.56l1.654.834a6.36 6.36 0 0 1 1.452-.586l.61-1.749C11.298 4.023 11.647 4 12 4Z" clip-rule="evenodd"></path>
  <path d="M12 15.429a3.429 3.429 0 1 0 0-6.858 3.429 3.429 0 0 0 0 6.858Z"></path>
</svg>