<svg width="46" height="46" fill="none" stroke="currentColor" stroke-linecap="round" stroke-linejoin="round" stroke-width="1.5" viewBox="0 0 24 24" xmlns="http://www.w3.org/2000/svg">
  <path d="M8.571 4h6.858a2.286 2.286 0 0 1 2.285 2.286v11.428A2.286 2.286 0 0 1 15.43 20H8.57a2.286 2.286 0 0 1-2.285-2.286V6.286A2.286 2.286 0 0 1 8.57 4Z" clip-rule="evenodd"></path>
  <path d="M12 17.714a3.429 3.429 0 1 0 0-6.857 3.429 3.429 0 0 0 0 6.857Z"></path>
  <path fill="currentColor" stroke="none" d="M12 8.571a1.143 1.143 0 1 0 0-2.285 1.143 1.143 0 0 0 0 2.285Z"></path>
</svg>