<svg width="46" height="46" fill="none" stroke="currentColor" stroke-linecap="round" stroke-linejoin="round" stroke-width="1.5" viewBox="0 0 24 24" xmlns="http://www.w3.org/2000/svg">
  <path d="M12.571 18.877c5.05 0 9.143-3.458 9.143-7.724s-4.093-7.725-9.143-7.725c-5.049 0-9.142 3.459-9.142 7.725 0 1.665.624 3.208 1.685 4.47L4 20.856l4.476-2.797a10.48 10.48 0 0 0 4.095.817Z" clip-rule="evenodd"></path>
  <path fill="currentColor" fill-rule="evenodd" stroke="none" d="M12.57 12.571c.572 0 1.143-.571 1.143-1.143 0-.57-.571-1.142-1.143-1.142-.571 0-1.141.571-1.141 1.143 0 .57.57 1.142 1.141 1.142Zm-4.571 0c.571 0 1.143-.571 1.143-1.143 0-.57-.572-1.142-1.143-1.142-.572 0-1.142.571-1.142 1.143 0 .57.57 1.142 1.142 1.142Zm9.143 0c.572 0 1.144-.571 1.144-1.143 0-.57-.572-1.142-1.144-1.142S16 10.857 16 11.429c0 .57.57 1.142 1.142 1.142Z" clip-rule="evenodd"></path>
</svg>