<svg width="46" height="46" fill="none" stroke="currentColor" stroke-linecap="round" stroke-linejoin="round" stroke-width="1.5" viewBox="0 0 24 24" xmlns="http://www.w3.org/2000/svg">
  <path d="M13.616 4h4.098A2.286 2.286 0 0 1 20 6.286v4.098c0 .303-.12.594-.335.808l-7.763 7.763a2.286 2.286 0 0 1-3.233 0l-3.624-3.624a2.286 2.286 0 0 1 0-3.233l7.763-7.763c.215-.215.505-.335.808-.335Z" clip-rule="evenodd"></path>
  <path fill="currentColor" stroke="none" d="M17.143 8a1.143 1.143 0 1 0 0-2.286 1.143 1.143 0 0 0 0 2.286Z"></path>
</svg>