<svg width="46" height="46" fill="none" stroke="currentColor" stroke-linecap="round" stroke-linejoin="round" stroke-width="1.5" viewBox="0 0 24 24" xmlns="http://www.w3.org/2000/svg">
  <path d="M14.76 4h4.097a2.286 2.286 0 0 1 2.286 2.286v4.098c0 .303-.12.594-.335.808l-7.763 7.763a2.286 2.286 0 0 1-3.233 0l-3.624-3.624a2.286 2.286 0 0 1 0-3.233l7.763-7.763A1.14 1.14 0 0 1 14.759 4Z" clip-rule="evenodd"></path>
  <path d="m9.714 18.857-2.3 1.15a2.286 2.286 0 0 1-3.163-1.242l-1.845-4.92a2.286 2.286 0 0 1 1.03-2.802L12 6.286"></path>
  <path fill="currentColor" stroke="none" d="M19.429 6.857a1.143 1.143 0 1 0-2.286 0 1.143 1.143 0 0 0 2.286 0Z"></path>
</svg>