<svg width="46" height="46" fill="none" stroke="currentColor" stroke-linecap="round" stroke-linejoin="round" stroke-width="1.5" viewBox="0 0 24 24" xmlns="http://www.w3.org/2000/svg">
  <path d="M10.857 6.286A3.429 3.429 0 0 0 7.43 9.714v5.715a3.429 3.429 0 0 0 3.428 3.428h2.82l1.961 2.776c.188.265.477.437.796.475l.137.008c.586 0 1.07-.44 1.136-1.01l.007-.132.001-2.118 1.142.001a3.429 3.429 0 0 0 3.429-3.428V9.714a3.429 3.429 0 0 0-3.429-3.428h-8Z" clip-rule="evenodd"></path>
  <path d="m7.429 15.429-2.286 2.285v-4.571H4.107a2.286 2.286 0 0 1-2.285-2.259l-.08-6.857a2.286 2.286 0 0 1 2.285-2.313h10.259A2.286 2.286 0 0 1 16.572 4v2.286"></path>
</svg>