<svg width="46" height="46" fill="none" stroke="currentColor" stroke-linecap="round" stroke-linejoin="round" stroke-width="1.5" viewBox="0 0 24 24" xmlns="http://www.w3.org/2000/svg">
  <path d="m15.592 19.15-3.593-1.436H7.427v-8h2.286l3.201-6.286c.663 0 1.229.235 1.697.703.469.469.703 1.035.703 1.697l-1.028 2.743 4.607 1.536a2.286 2.286 0 0 1 1.495 2.72l-.078.251-1.776 4.735a2.286 2.286 0 0 1-2.942 1.338Z" clip-rule="evenodd"></path>
  <path d="M4 8.571h2.286c.63 0 1.143.512 1.143 1.143v9.143c0 .631-.512 1.143-1.143 1.143H4a1.143 1.143 0 0 1-1.143-1.143V9.714c0-.631.512-1.143 1.143-1.143Z" clip-rule="evenodd"></path>
</svg>