<svg width="46" height="46" fill="none" stroke="currentColor" stroke-linecap="round" stroke-linejoin="round" stroke-width="1.5" viewBox="0 0 24 24" xmlns="http://www.w3.org/2000/svg">
  <path d="m15.592 4.85-3.593 1.436H7.427v8h2.286l3.201 6.286c.663 0 1.229-.235 1.697-.703a2.312 2.312 0 0 0 .703-1.697l-1.028-2.743 4.607-1.536a2.286 2.286 0 0 0 1.495-2.72l-.078-.251-1.776-4.735a2.286 2.286 0 0 0-2.942-1.337Z" clip-rule="evenodd"></path>
  <path d="M4 15.429h2.286c.63 0 1.143-.512 1.143-1.143V5.143C7.429 4.512 6.917 4 6.286 4H4c-.631 0-1.143.512-1.143 1.143v9.143c0 .631.512 1.143 1.143 1.143Z" clip-rule="evenodd"></path>
</svg>