<svg width="46" height="46" fill="none" stroke="currentColor" stroke-linecap="round" stroke-linejoin="round" stroke-width="1.5" viewBox="0 0 24 24" xmlns="http://www.w3.org/2000/svg">
  <path d="M21.143 12V5.143a2.286 2.286 0 0 0-2.286-2.286H12a2.286 2.286 0 0 0-2.286 2.286V12A2.286 2.286 0 0 0 12 14.286h6.857A2.286 2.286 0 0 0 21.143 12Z" clip-rule="evenodd"></path>
  <path d="M7.429 9.718H5.143a2.286 2.286 0 0 0-2.286 2.286v6.856a2.286 2.286 0 0 0 2.286 2.286h.004l6.857-.012a2.286 2.286 0 0 0 2.282-2.285v-2.277"></path>
  <path d="M8.572 14.29h-3.43"></path>
  <path d="m10.286 16-1.143 1.143c-.38.38-1.333.952-2.857 1.714"></path>
  <path d="M6.286 14.29c.381 1.332.953 2.284 1.715 2.855.761.57 1.714 1.141 2.857 1.712"></path>
  <path d="M15.429 5.143 12 12"></path>
  <path d="M15.429 5.143 18.857 12"></path>
  <path d="M17.714 9.714h-4.571"></path>
</svg>