<svg width="46" height="46" fill="none" stroke="currentColor" stroke-linecap="round" stroke-linejoin="round" stroke-width="1.5" viewBox="0 0 24 24" xmlns="http://www.w3.org/2000/svg">
  <path d="M6.906 5.455c1.491-.574 3.19-.865 5.094-.873 1.905-.007 3.603.284 5.094.873a3.429 3.429 0 0 1 2.446 3.818l-1.23 7.994a4.571 4.571 0 0 1-4.518 3.876h-3.584a4.571 4.571 0 0 1-4.519-3.877L4.46 9.274a3.429 3.429 0 0 1 2.447-3.818Z" clip-rule="evenodd"></path>
  <path fill="currentColor" fill-rule="evenodd" stroke="none" d="M12 11.429c4.064 0 5.714-1.715 5.714-2.858C17.714 7.43 16.064 6 12 6 7.937 6 6.286 7.429 6.286 8.571c0 1.143 1.65 2.858 5.714 2.858Z" clip-rule="evenodd"></path>
</svg>