<svg width="46" height="46" fill="none" stroke="currentColor" stroke-linecap="round" stroke-linejoin="round" stroke-width="1.5" viewBox="0 0 24 24" xmlns="http://www.w3.org/2000/svg">
  <path d="m6.277 6.325 11.429-.042A2.286 2.286 0 0 1 20 8.561v5.725a2.286 2.286 0 0 1-2.286 2.285H6.286A2.286 2.286 0 0 1 4 14.286V8.61a2.286 2.286 0 0 1 2.277-2.285Z" clip-rule="evenodd"></path>
  <path fill="currentColor" stroke="none" d="M14.248 10.971 11.2 8.686a.571.571 0 0 0-.914.457v4.571a.571.571 0 0 0 .914.457l3.048-2.285a.572.572 0 0 0 0-.915Z"></path>
  <path d="M6.245 18.857h11.47"></path>
</svg>