<svg width="46" height="46" fill="none" stroke="currentColor" stroke-linecap="round" stroke-linejoin="round" stroke-width="1.5" viewBox="0 0 24 24" xmlns="http://www.w3.org/2000/svg">
  <path d="M4 7.429h13.714A2.286 2.286 0 0 1 20 9.714v6.857a2.286 2.286 0 0 1-2.286 2.286H6.286A2.286 2.286 0 0 1 4 16.571V7.43Zm1.143-2.286h10.286c.63 0 1.142.511 1.142 1.143v1.143H4V6.286c0-.631.512-1.143 1.143-1.143Z" clip-rule="evenodd"></path>
  <path fill="currentColor" stroke="none" d="M16.571 14.286a1.143 1.143 0 1 0 0-2.286 1.143 1.143 0 0 0 0 2.286Z"></path>
</svg>