<svg width="46" height="46" fill="none" stroke="currentColor" stroke-linecap="round" stroke-linejoin="round" stroke-width="1.5" viewBox="0 0 24 24" xmlns="http://www.w3.org/2000/svg">
  <path d="M9.952 7.024c3.59-.582 7.388.378 10.292 2.881"></path>
  <path d="M6.545 12.61a8.636 8.636 0 0 1 3.954-1.807"></path>
  <path d="M13.35 10.768a8.64 8.64 0 0 1 4.167 1.842"></path>
  <path d="M3.756 9.905a12.498 12.498 0 0 1 3.808-2.25"></path>
  <path d="M4.571 4.572 19.43 19.51"></path>
  <path d="M9.296 15.322a4.762 4.762 0 0 1 5.416 0"></path>
  <path fill="currentColor" d="M12 18.857a1.143 1.143 0 1 0 0-2.285 1.143 1.143 0 0 0 0 2.285Z"></path>
</svg>