<svg width="46" height="46" fill="none" stroke="currentColor" stroke-linecap="round" stroke-linejoin="round" stroke-width="1.5" viewBox="0 0 24 24" xmlns="http://www.w3.org/2000/svg">
  <path d="M14.334 10.976a8.616 8.616 0 0 1 3.183 1.633"></path>
  <path d="M6.545 12.61a8.617 8.617 0 0 1 3.16-1.628"></path>
  <path d="m12 14.286.03-9.143"></path>
  <path d="M14.102 14.963c.21.103.414.223.61.359l-.61-.359Z"></path>
  <path d="M3.756 9.905a12.542 12.542 0 0 1 5.971-2.842"></path>
  <path d="M14.398 7.086a12.54 12.54 0 0 1 5.846 2.819"></path>
  <path d="M9.296 15.322a4.68 4.68 0 0 1 .572-.34l-.572.34Z"></path>
  <path fill="currentColor" d="M12 18.857a1.143 1.143 0 1 0 0-2.286 1.143 1.143 0 0 0 0 2.286Z"></path>
</svg>