<svg width="46" height="46" fill="none" stroke="currentColor" stroke-linecap="round" stroke-linejoin="round" stroke-width="1.5" viewBox="0 0 24 24" xmlns="http://www.w3.org/2000/svg">
  <path d="M6.286 4h11.428A2.286 2.286 0 0 1 20 6.286v11.428A2.286 2.286 0 0 1 17.714 20H6.286A2.286 2.286 0 0 1 4 17.714V6.286A2.286 2.286 0 0 1 6.286 4Z" clip-rule="evenodd"></path>
  <path fill="currentColor" fill-rule="evenodd" d="M6.286 6.286h11.428A2.286 2.286 0 0 1 20 8.57V6.286C20 5.143 18.977 4 17.714 4H6.286C5.023 4 4 5.143 4 6.286V8.57a2.286 2.286 0 0 1 2.286-2.285Z" clip-rule="evenodd"></path>
</svg>